<svg width="17" height="20" viewBox="0 0 17 20" fill="none" xmlns="http://www.w3.org/2000/svg">
<path d="M16.1194 9.6013L6.68474 0.166606C6.4626 -0.0555352 6.10633 -0.0555352 5.88419 0.166606C5.66205 0.388746 5.66205 0.74501 5.88419 0.96715L14.9165 9.99948L5.88419 19.0318C5.66205 19.2539 5.66205 19.6102 5.88419 19.8323C5.99317 19.9413 6.13986 20 6.28237 20C6.42487 20 6.57157 19.9455 6.68055 19.8323L16.1152 10.3977C16.3374 10.1797 16.3374 9.81925 16.1194 9.6013Z" fill="#414141"/>
<path d="M11.1194 9.6013L1.68468 0.166606C1.46254 -0.055535 1.10628 -0.055535 0.884135 0.166606C0.661994 0.388747 0.661994 0.74501 0.884135 0.967151L9.91646 9.99948L0.884135 19.0318C0.661994 19.2539 0.661994 19.6102 0.884135 19.8323C0.99311 19.9413 1.13981 20 1.28231 20C1.42482 20 1.57151 19.9455 1.68049 19.8323L11.1152 10.3977C11.3373 10.1797 11.3373 9.81925 11.1194 9.6013Z" fill="#414141"/>
</svg>
