<svg width="120" height="34" viewBox="0 0 120 34" fill="none" xmlns="http://www.w3.org/2000/svg">
<g clip-path="url(#clip0)">
<path d="M111.2 33.7875C109.539 33.4211 107.945 32.4949 107.094 31.4015C106.692 30.8861 106.687 30.8554 106.961 30.5587C107.241 30.2562 107.265 30.2682 108.328 31.2505C109.085 31.9497 109.691 32.3546 110.345 32.5976C112.826 33.5189 115.841 32.9705 117.362 31.3212C118.574 30.0076 119.034 28.4331 119.038 25.5958L119.04 23.6877L118.13 24.6226C115.785 27.0298 111.589 27.5276 108.903 25.7171C108.166 25.2205 107.144 24.0275 106.675 23.1159C105.453 20.7389 105.113 16.3312 105.917 13.2553C106.573 10.7409 107.784 9.13044 109.722 8.19202C110.907 7.61824 110.993 7.60109 112.632 7.60981C115.234 7.62363 116.986 8.42886 118.343 10.2341L119.04 11.1615V9.49868V7.8359H119.52H120L119.997 17.67C119.995 25.512 119.949 27.7145 119.77 28.5432C119.17 31.3146 117.29 33.22 114.605 33.7772C113.309 34.0462 112.386 34.049 111.2 33.7875ZM114.527 25.6957C116.265 25.3031 117.936 24.0701 118.639 22.6618L119.054 21.8308L119.007 17.3017L118.96 12.7725L118.482 11.8476C117.83 10.5841 116.843 9.6373 115.556 9.04037C114.547 8.5721 114.371 8.54138 112.72 8.54515C111.182 8.54846 110.86 8.59746 110.16 8.9332C107.937 10.0004 106.713 12.4028 106.464 16.1888C106.277 19.0328 106.836 21.7245 107.969 23.4406C109.074 25.1139 110.496 25.8472 112.64 25.8495C113.3 25.8502 114.149 25.781 114.527 25.6957ZM91.4139 26.5758C88.3519 25.8485 86.0443 23.2542 85.3427 19.7506C85.0244 18.1615 85.115 15.1951 85.5269 13.7128C86.9527 8.58226 92.3093 6.0985 97.0402 8.37429C99.0918 9.36118 100.496 11.0925 101.306 13.6345C101.63 14.6527 101.679 15.1242 101.674 17.1606C101.667 19.8579 101.449 20.8831 100.507 22.6456C98.8033 25.8319 95.0718 27.4448 91.4139 26.5758ZM96.5477 25.1746C99.2348 23.8738 100.795 20.9304 100.795 17.1606C100.795 12.073 97.7556 8.45731 93.4853 8.46463C89.9166 8.47061 87.1302 10.8776 86.3209 14.6531C86.0222 16.0469 86.0192 18.42 86.3148 19.785C86.9415 22.6815 89.0911 25.0685 91.6399 25.698C91.9703 25.7796 92.9425 25.8246 93.8005 25.7979C95.2233 25.7537 95.4646 25.6989 96.5477 25.1746ZM57.9201 13.945V1.37872L62.5202 1.45011C67.3621 1.52526 68.1355 1.62411 69.7171 2.37C70.7669 2.86509 71.9329 3.98738 72.4322 4.98326C72.8474 5.81155 72.8802 6.01474 72.8802 7.76084C72.8802 9.57449 72.8606 9.68383 72.3535 10.6927C71.7437 11.9058 70.9067 12.6802 69.6567 13.1877L68.7956 13.5373L69.7438 13.8224C70.2653 13.9792 71.054 14.374 71.4966 14.6997C73.5575 16.2165 74.428 18.2302 74.0805 20.6772C73.7006 23.3527 72.2027 25.0827 69.4402 26.0364C68.4536 26.377 68.1309 26.3984 63.1602 26.4534L57.9201 26.5113V13.945ZM69.3175 25.114C71.8732 24.1839 73.146 22.4417 73.1815 19.8248C73.2031 18.2348 72.8637 17.2488 71.9382 16.2125C71.5529 15.7811 70.881 15.238 70.4451 15.0056C68.9926 14.2313 68.0158 14.1095 63.2402 14.1069L58.8801 14.1043V19.8367V25.5692L63.6402 25.5083C68.0144 25.4524 68.4745 25.4207 69.3175 25.114ZM67.6389 12.9164C70.5943 12.3185 71.8346 10.9703 71.9676 8.21115C72.1145 5.16307 70.9512 3.57002 67.9463 2.70402C67.3383 2.52879 66.0324 2.44665 63.0001 2.39291L58.8801 2.3199V7.74211V13.1643H62.6469C65.4586 13.1643 66.7243 13.1014 67.6389 12.9164ZM79.3602 13.2427V0H79.8402H80.3202V13.2427V26.4853H79.8402H79.3602V13.2427Z" fill="black" fill-opacity="0.8"/>
<path d="M38.0001 33.7131C36.8859 33.2119 36.3201 32.2555 36.3201 30.8734C36.3201 29.8771 36.6156 29.1727 37.2545 28.6462C37.879 28.1315 38.5155 27.9914 39.6167 28.1261L40.4801 28.2318V30.5713C40.4801 32.1003 40.5383 32.9108 40.648 32.9108C41.2218 32.9108 42.2233 32.0478 42.8579 31.0065C43.3349 30.2238 44.6418 27.1436 44.6327 26.8234C44.6287 26.6806 42.5539 22.826 40.0221 18.2577L35.4188 9.95164L34.5094 9.66641C33.9354 9.48636 33.6001 9.29419 33.6001 9.14531C33.6001 8.94155 34.0302 8.91638 36.7601 8.9604C39.8519 9.01025 39.9356 9.02036 40.6401 9.42898C41.0361 9.65867 41.5924 10.0835 41.8764 10.373C42.1603 10.6625 43.482 12.8724 44.8135 15.2838C46.1449 17.6952 47.2866 19.7234 47.3505 19.7908C47.4368 19.882 49.8369 14.0563 51.1136 10.6569C51.1797 10.4808 50.8606 10.2907 49.841 9.89871C47.6436 9.0541 47.8943 8.93298 51.8401 8.93298C55.8011 8.93298 56.0372 9.05269 53.7453 9.89904L52.2904 10.4363L48.4979 19.9888C46.412 25.2427 44.4282 30.0556 44.0895 30.6841C43.3332 32.0869 42.2362 33.2574 41.2801 33.6815C40.3514 34.0935 38.8774 34.1077 38.0001 33.7131ZM14.2781 25.6626C13.9311 25.0377 11.547 20.5709 8.98005 15.7363C6.41311 10.9016 4.20878 6.81126 4.08153 6.64657C3.87889 6.38427 3.84956 7.49646 3.84509 15.6135L3.84001 24.8797L5.28001 25.3883C6.39761 25.783 6.72001 25.9628 6.72001 26.1911C6.72001 26.4696 6.54019 26.4853 3.36 26.4853C0.246794 26.4853 0 26.4649 0 26.2067C0 25.9991 0.366852 25.795 1.44001 25.4055L2.88001 24.8828V13.8716V2.86016L2.36873 2.76C1.13467 2.51825 0.640002 2.32881 0.640002 2.09794C0.640002 1.88776 1.04184 1.86362 3.8 1.90809C6.69345 1.95475 7.01552 1.98811 7.61803 2.30384C8.96097 3.00757 9.495 3.8363 13.7485 11.8174C16.2698 16.5485 17.8612 19.3734 17.9334 19.2463C17.9974 19.1336 19.3573 15.8384 20.9553 11.9237C24.1248 4.15922 24.3146 3.73772 24.9377 3.08088C25.8821 2.08513 26.3563 1.9648 29.5601 1.90776C32.1063 1.86242 32.4801 1.88668 32.4801 2.09726C32.4801 2.32254 32.2294 2.42241 30.839 2.75118L30.398 2.85547L30.439 14.158L30.4801 25.4604L31.4801 25.6867C32.2573 25.8626 32.4801 25.9767 32.4801 26.1992C32.4801 26.4703 32.2109 26.4853 27.3601 26.4853C22.4605 26.4853 22.24 26.4727 22.24 26.1915C22.24 25.9864 22.3944 25.8674 22.7513 25.7975C23.0325 25.7424 23.5365 25.6251 23.8713 25.5368L24.48 25.3762V15.8696C24.48 10.6409 24.419 6.4298 24.3444 6.51169C24.2698 6.59357 22.3521 11.1917 20.0829 16.7297L15.957 26.7988H15.433C14.9471 26.7988 14.863 26.716 14.2781 25.6626Z" fill="#1BB7E9"/>
</g>
<defs>
<clipPath id="clip0">
<rect width="120" height="34" fill="white"/>
</clipPath>
</defs>
</svg>
