<svg width="30" height="30" viewBox="0 0 30 30" fill="none" xmlns="http://www.w3.org/2000/svg">
<path d="M0 0V30H30V0H0ZM23.0108 10.6866C22.4977 11.1339 21.9322 11.5153 21.9322 11.5153C21.9322 11.5153 22.3838 13.427 21.1209 16.3209C19.8581 19.2149 17.1397 21.4598 14.2457 21.9508C11.3519 22.4419 9.82593 22.1438 8.65074 21.8105C7.47568 21.4773 6.21283 20.6003 6.21283 20.6003C6.21283 20.6003 8.26491 20.653 9.52762 20.232C10.7905 19.8111 11.527 19.1797 11.527 19.1797C11.527 19.1797 10.1765 19.0745 9.10668 18.1274C8.03682 17.1803 7.98415 16.4788 7.98415 16.4788C7.98415 16.4788 8.54541 16.6015 9.08912 16.6015C9.63283 16.6015 9.72048 16.5664 9.72048 16.5664C9.72048 16.5664 8.19456 16.1455 7.35279 14.7599C6.5109 13.3743 6.72143 12.8481 6.72143 12.8481C6.72143 12.8481 7.03717 13.1112 7.59844 13.2866C8.1597 13.462 8.49287 13.3393 8.49287 13.3393C8.49287 13.3393 7.05473 12.55 6.94952 10.9014C6.84432 9.25268 7.38803 8.481 7.38803 8.481C7.38803 8.481 8.37024 10.27 10.8607 11.2872C13.3511 12.3044 14.8595 12.2343 14.8595 12.2343C14.8595 12.2343 14.0878 9.39299 17.0343 8.16526C19.9808 6.93753 21.2437 9.11236 21.2437 9.11236C21.2437 9.11236 22.1689 8.84484 22.6029 8.62132C23.037 8.3978 23.3001 8.10827 23.3001 8.10827C23.3001 8.10827 23.1553 8.7133 22.7739 9.21324C22.3924 9.71306 21.8532 10.1867 21.8532 10.1867C21.8532 10.1867 22.432 10.042 22.9449 9.87093C23.4579 9.69996 23.7868 9.56842 23.7868 9.56842C23.7868 9.56842 23.5238 10.2393 23.0108 10.6866Z" fill="#1BB7E9"/>
</svg>
