<svg width="30" height="30" viewBox="0 0 30 30" fill="none" xmlns="http://www.w3.org/2000/svg">
<path d="M20.8305 13.7256H22.712V21.8174C22.712 22.3114 22.3114 22.712 21.8174 22.712H8.18257C7.68856 22.712 7.28801 22.3114 7.28801 21.8174V13.7256H9.16948C9.0801 14.1364 9.03164 14.5624 9.03164 14.9999C9.03164 18.2962 11.7037 20.9682 14.9999 20.9682C18.2962 20.9682 20.9682 18.2962 20.9682 14.9999C20.9682 14.5624 20.9199 14.1363 20.8305 13.7256ZM14.9999 19.0201C17.2201 19.0201 19.02 17.2203 19.02 15.0001C19.02 12.7799 17.2201 10.98 14.9999 10.98C12.7797 10.98 10.9799 12.7799 10.9799 15.0001C10.9799 17.2203 12.7797 19.0201 14.9999 19.0201ZM19.8164 10.8713H21.3475C21.7964 10.8713 22.1604 10.5074 22.1604 10.0585V8.52749C22.1604 8.0786 21.7965 7.71477 21.3475 7.71477H19.8164C19.3675 7.71477 19.0037 8.0786 19.0037 8.52749V10.0586C19.0037 10.5075 19.3675 10.8713 19.8164 10.8713ZM30 0V30H0V0H30ZM24.555 7.85509C24.555 6.52413 23.476 5.44512 22.145 5.44512H7.85509C6.52413 5.44512 5.44512 6.52413 5.44512 7.85509V22.145C5.44512 23.476 6.52413 24.555 7.85509 24.555H22.145C23.476 24.555 24.555 23.476 24.555 22.145V7.85509Z" fill="#1BB7E9"/>
</svg>
